<?xml version="1.0" encoding="utf-8"?>
<svg baseProfile="tiny-ps" version="1.2" xmlns:xlink="http://www.w3.org/1999/xlink" viewBox="0 0 120 120" xmlns="http://www.w3.org/2000/svg">
  <title>Geneplore AI Logo</title>
  <!-- Generator: Adobe Illustrator 29.5.0, SVG Export Plug-In . SVG Version: 2.1.0 Build 137)  -->
  <defs>
    <linearGradient id="linear-gradient" x1="-44.72" y1="26.41" x2="260.8" y2="124.41" gradientUnits="userSpaceOnUse">
      <stop offset="0" stop-color="#3c2564" />
      <stop offset=".18" stop-color="#43255e" />
      <stop offset=".45" stop-color="#57254d" />
      <stop offset=".77" stop-color="#772632" />
      <stop offset=".86" stop-color="#82272a" />
    </linearGradient>
  </defs>
  <g id="Layer_2">
    <rect width="120" height="120" fill="url(#linear-gradient)" stroke="#822629" stroke-miterlimit="10" />
  </g>
  <g id="Layer_1">
    <g>
      <polygon points="45.31 49.59 55.59 60.57 59.95 74.95 64.31 60.57 74.59 49.59 59.95 53.01 45.31 49.59" fill="#bbadd5" />
      <path d="M59.95,55.31c-.18,0-.35-.02-.52-.06l-37.9-8.84c-.71-.17-1.3-.66-1.59-1.33s-.24-1.44.12-2.07l9.8-16.88c.41-.71,1.17-1.15,1.99-1.15h56.2c.82,0,1.58.44,1.99,1.15l9.8,16.88c.37.63.41,1.4.12,2.07s-.88,1.16-1.59,1.33l-37.9,8.84c-.17.04-.35.06-.52.06ZM25.6,42.63l34.35,8.01,34.35-8.01-7.57-13.05h-53.55l-7.57,13.05Z" fill="#bbadd5" />
      <path d="M66.88,100.11h0l-19.52-.04c-.82,0-1.58-.44-1.99-1.15l-28.1-48.67c-.41-.71-.41-1.58,0-2.3l9.72-16.93c.36-.63,1-1.05,1.73-1.14.73-.08,1.45.18,1.94.71l26.61,28.4c.24.26.42.57.52.9l11.29,37.24c.21.7.08,1.45-.36,2.04-.43.58-1.12.93-1.85.93ZM48.69,95.47l15.09.03-10.24-33.75-24.11-25.74-7.51,13.08,26.78,46.38Z" fill="#bbadd5" />
      <path d="M53.02,100.11c-.73,0-1.41-.34-1.85-.93-.43-.59-.57-1.34-.36-2.04l11.29-37.24c.1-.34.28-.65.52-.9l26.61-28.4c.5-.53,1.22-.8,1.94-.71.72.08,1.37.51,1.73,1.14l9.72,16.93c.41.71.41,1.59,0,2.3l-28.1,48.67c-.41.71-1.17,1.15-1.99,1.15l-19.52.04h0ZM66.36,61.75l-10.24,33.75,15.09-.03,26.78-46.38-7.51-13.08-24.11,25.74Z" fill="#bbadd5" />
    </g>
  </g>
</svg>